<svg width="136" height="69" viewBox="0 0 136 69" fill="none" xmlns="http://www.w3.org/2000/svg">
<path d="M16.24 28.12C16.16 28.6 16 29.48 15.84 30.6C15.12 34.6 13.84 41.4 12.24 48.04C7.36 52.68 2.72 58.04 1.28 64.84C0.96 66.6 1.6 68.52 3.52 68.52C7.76 68.52 11.2 58.92 13.68 49C14 48.68 14.32 48.36 14.72 48.04C17.36 45.64 20.24 42.92 21.84 39.56C22.32 38.6 20.88 37.88 20.4 38.84C19.04 41.72 16.64 43.96 14.4 46.04C15.76 40.12 16.8 34.44 17.44 30.92C17.6 29.96 17.76 29.16 17.92 28.44C18.08 27.4 16.48 27.08 16.24 28.12ZM3.44 66.84C2.72 66.68 2.8 65.64 2.88 65.16C4.08 59.64 7.6 55.08 11.52 51.08C9.36 59.48 6.56 66.84 3.52 66.84H3.44ZM15.44 24.92C17.2 23.32 19.12 22.12 21.12 21C22.08 20.52 21.36 19.08 20.4 19.56C18.24 20.68 16.16 22.04 14.4 23.72C13.6 24.44 14.72 25.64 15.44 24.92ZM28.0462 27.72C25.7262 27.72 23.4862 31.32 22.4462 35.48C21.8862 37.88 21.6462 40.6 22.2062 43C22.7662 45.48 24.2862 47.16 26.9262 47.16C29.6462 47.16 31.8862 45.16 33.4862 42.44C34.2062 42.84 35.0062 43 35.8062 43C37.8862 43 39.5662 41.56 40.3662 39.72C40.8462 38.68 39.3262 38.04 38.8462 39C38.2862 40.28 37.1662 41.4 35.8062 41.4C35.2462 41.4 34.7662 41.24 34.2862 40.92C35.8062 37.64 36.8462 33.4 36.0462 29.72C35.5662 27.56 34.3662 26.04 32.3662 26.04C30.5262 26.04 29.4062 27.96 29.1662 29.64C28.5262 33.32 29.4062 38.68 32.2062 41.4C30.8462 43.8 29.0062 45.48 26.9262 45.48C25.1662 45.48 24.2062 44.28 23.8062 42.6C23.3262 40.44 23.5662 38.04 24.1262 35.88C24.9262 32.44 26.5262 29.32 28.0462 29.32C29.0862 29.32 29.0862 27.72 28.0462 27.72ZM34.4462 30.04C35.1662 33.32 34.2062 36.92 33.0062 39.8C30.9262 37.32 30.2862 33 30.7662 29.88C30.9262 29.16 31.4062 27.72 32.3662 27.72C33.4862 27.72 34.1262 28.68 34.4462 30.04ZM43.0411 24.84C41.3611 32.28 39.7611 39.8 38.4811 47.32C38.4011 47.8 38.7211 48.2 39.2011 48.28H39.2811C39.8411 48.28 40.0811 47.8 40.1611 47.32C41.6811 42.44 43.8411 36.92 46.1611 33C47.9211 30.12 49.6011 28.2 51.1211 28.2C52.0011 28.2 52.4011 29.08 52.4011 29.88C52.4011 30.92 51.7611 33.4 51.0411 36.2C50.1611 39.72 49.1211 43.72 49.1211 45.96C49.1211 47.56 49.6011 48.52 50.7211 48.52C51.6811 48.52 52.9611 47.4 54.1611 45.8C55.5211 44.04 56.9611 41.72 58.0011 39.72C58.4811 38.76 57.0411 37.96 56.5611 38.92C55.5211 40.92 54.1611 43.16 52.8811 44.76C51.9211 45.96 51.1211 46.84 50.7211 46.84C50.7211 46.84 50.8011 46.52 50.8011 45.96C50.8011 43.88 51.7611 40.04 52.6411 36.6C53.4411 33.72 54.0811 31.08 54.0811 29.88C54.0811 28.2 52.9611 26.52 51.1211 26.52C48.9611 26.52 46.7211 28.84 44.7211 32.2C43.7611 33.8 42.8811 35.72 42.0011 37.72C42.8011 33.56 43.6811 29.4 44.7211 25.24C46.6411 16.92 48.7211 8.76 50.7211 1.88C51.0411 0.839998 49.4411 0.439999 49.1211 1.48C47.1211 8.36 45.0411 16.52 43.0411 24.84ZM60.2091 29.96C59.5691 32.28 59.0091 34.84 58.5291 37.4C57.9691 40.04 57.4891 42.84 57.0891 45.24C57.0091 45.64 57.3291 46.12 57.8091 46.2C58.2091 46.28 58.6891 45.96 58.7691 45.48V45.4C59.1691 43.24 61.1691 37.48 63.7291 33.48C65.1691 31.08 66.8491 29.24 68.4491 29.24C69.3291 29.24 69.4091 30.36 69.4091 31.08C69.4091 32.52 68.6091 35.32 67.8091 38.36C66.9291 41.32 66.0491 44.52 65.8091 46.92C65.7291 48.04 66.0491 49.8 67.5691 49.8C68.5291 49.8 69.3291 49 69.8891 48.2C71.3291 46.04 73.1691 41.72 73.8891 40.04L74.0491 39.72C74.2891 39.24 74.0491 38.76 73.6491 38.6C73.2491 38.44 72.7691 38.6 72.5291 39L72.3691 39.4C71.7291 41.08 69.8891 45.24 68.4491 47.32C68.2891 47.56 67.8891 48.12 67.5691 48.12C67.4091 47.8 67.4091 47.4 67.4891 47.08C67.6491 44.84 68.5291 41.72 69.4091 38.76C70.2891 35.64 71.0891 32.76 71.0891 31.08C71.0891 29.4 70.3691 27.64 68.4491 27.64C66.2091 27.64 64.0491 29.72 62.2891 32.6C61.6491 33.64 61.0891 34.76 60.5291 35.88C60.9291 33.96 61.3291 32.12 61.8091 30.36C62.0491 29.32 60.4491 28.92 60.2091 29.96ZM67.5691 48.12C67.5691 48.12 67.4891 48.12 67.5691 48.12V48.12ZM81.7403 8.76C78.3003 21.16 75.3403 33.72 73.3403 46.44C73.1803 47.56 74.7803 47.88 74.9403 46.76C76.6203 37.8 80.3803 25 85.4203 15.72C88.9403 9.24 93.0203 4.52 97.3403 4.52C99.1003 4.52 100.14 6.12 100.62 8.68C101.58 13.56 100.46 19.24 99.1803 24.04C96.3003 34.6 90.0603 45.48 82.6203 45.48C80.3003 45.48 78.7803 43.96 78.3003 41.72C78.0603 40.68 76.4603 41 76.7003 42.04C77.3403 45.08 79.5003 47.08 82.6203 47.08C90.9403 47.08 97.6603 35.64 100.78 24.44C102.14 19.48 103.26 13.56 102.3 8.36C101.58 5 100.06 2.92 97.3403 2.92C92.3003 2.92 87.7403 7.96 83.9003 15C82.1403 18.28 80.5403 21.96 79.1003 25.88C80.3803 20.2 81.8203 14.6 83.3403 9.24C83.6603 8.2 82.0603 7.72 81.7403 8.76ZM107.403 27.72C105.083 27.72 102.843 31.32 101.803 35.48C101.243 37.88 101.003 40.6 101.563 43C102.123 45.48 103.643 47.16 106.283 47.16C109.003 47.16 111.243 45.16 112.843 42.44C113.563 42.84 114.363 43 115.163 43C117.243 43 118.923 41.56 119.723 39.72C120.203 38.68 118.683 38.04 118.203 39C117.643 40.28 116.523 41.4 115.163 41.4C114.603 41.4 114.123 41.24 113.643 40.92C115.163 37.64 116.203 33.4 115.403 29.72C114.923 27.56 113.723 26.04 111.723 26.04C109.883 26.04 108.763 27.96 108.523 29.64C107.883 33.32 108.763 38.68 111.563 41.4C110.203 43.8 108.363 45.48 106.283 45.48C104.523 45.48 103.563 44.28 103.163 42.6C102.683 40.44 102.923 38.04 103.483 35.88C104.283 32.44 105.883 29.32 107.403 29.32C108.443 29.32 108.443 27.72 107.403 27.72ZM113.803 30.04C114.523 33.32 113.563 36.92 112.363 39.8C110.283 37.32 109.643 33 110.123 29.88C110.283 29.16 110.763 27.72 111.723 27.72C112.843 27.72 113.483 28.68 113.803 30.04ZM133.913 38.84C131.913 41.56 128.633 45.32 124.953 45.32C123.273 45.32 122.233 44.44 121.833 43.16C121.193 41 121.833 38.44 122.553 36.36C124.073 32.2 127.273 28.12 130.633 28.12C131.513 28.12 132.073 28.68 132.073 29.56C132.073 30.04 131.993 30.44 131.753 31C130.393 34.12 126.553 37 123.273 37.64C122.153 37.88 122.473 39.48 123.593 39.32C127.433 38.52 131.673 35.24 133.273 31.64C133.593 30.92 133.753 30.2 133.753 29.56C133.753 27.8 132.473 26.52 130.633 26.52C126.473 26.52 122.713 31.08 120.953 35.8C120.073 38.2 119.513 41.08 120.233 43.64C120.873 45.64 122.393 47 124.953 47C129.273 47 132.953 43 135.193 39.8C135.833 38.92 134.473 37.96 133.913 38.84Z" fill="#6D6D6D"/>
</svg>
